<?xml version="1.0" encoding="UTF-8" standalone="no"?>
<svg xmlns="http://www.w3.org/2000/svg" width="1000" height="600" viewBox="0 0 1000 600">
  <!-- Background gradient -->
  <defs>
    <linearGradient id="heroBg" x1="0%" y1="0%" x2="100%" y2="100%">
      <stop offset="0%" style="stop-color:#6A11CB;stop-opacity:0.1"/>
      <stop offset="100%" style="stop-color:#00FFFF;stop-opacity:0.1"/>
    </linearGradient>
    
    <linearGradient id="grad" x1="0%" y1="0%" x2="100%" y2="100%">
      <stop offset="0%" style="stop-color:#6A11CB"/>
      <stop offset="100%" style="stop-color:#00FFFF"/>
    </linearGradient>
    
    <linearGradient id="gradLight" x1="0%" y1="0%" x2="100%" y2="100%">
      <stop offset="0%" style="stop-color:#6A11CB;stop-opacity:0.7"/>
      <stop offset="100%" style="stop-color:#00FFFF;stop-opacity:0.7"/>
    </linearGradient>
    
    <clipPath id="screenMask">
      <rect x="400" y="180" width="220" height="140" rx="5"/>
    </clipPath>
  </defs>
  
  <!-- Hero background -->
  <rect width="1000" height="600" fill="url(#heroBg)"/>
  
  <!-- Abstract shapes -->
  <circle cx="150" cy="100" r="80" fill="url(#grad)" opacity="0.1"/>
  <circle cx="850" cy="500" r="100" fill="url(#grad)" opacity="0.1"/>
  <circle cx="700" cy="150" r="50" fill="url(#grad)" opacity="0.1"/>
  <circle cx="300" cy="450" r="70" fill="url(#grad)" opacity="0.1"/>
  
  <!-- Teacher figure -->
  <rect x="200" y="220" width="180" height="300" rx="90" fill="url(#grad)" opacity="0.8"/>
  <circle cx="290" cy="170" r="70" fill="url(#grad)" opacity="0.8"/>
  
  <!-- Computer and data visualization -->
  <rect x="380" y="170" width="260" height="160" rx="10" fill="#555555" stroke="#333333" stroke-width="5"/>
  <rect x="400" y="180" width="220" height="140" rx="5" fill="#FFFFFF"/>
  
  <!-- AI visualization on screen -->
  <g clip-path="url(#screenMask)">
    <!-- Abstract data nodes -->
    <circle cx="430" cy="200" r="10" fill="url(#grad)"/>
    <circle cx="480" cy="240" r="12" fill="url(#grad)"/>
    <circle cx="530" cy="210" r="8" fill="url(#grad)"/>
    <circle cx="560" cy="250" r="10" fill="url(#grad)"/>
    <circle cx="510" cy="280" r="14" fill="url(#grad)"/>
    <circle cx="440" cy="270" r="9" fill="url(#grad)"/>
    
    <!-- Connection lines -->
    <line x1="430" y1="200" x2="480" y2="240" stroke="url(#grad)" stroke-width="2"/>
    <line x1="480" y1="240" x2="530" y2="210" stroke="url(#grad)" stroke-width="2"/>
    <line x1="530" y1="210" x2="560" y2="250" stroke="url(#grad)" stroke-width="2"/>
    <line x1="560" y1="250" x2="510" y2="280" stroke="url(#grad)" stroke-width="2"/>
    <line x1="510" y1="280" x2="440" y2="270" stroke="url(#grad)" stroke-width="2"/>
    <line x1="440" y1="270" x2="430" y2="200" stroke="url(#grad)" stroke-width="2"/>
    <line x1="480" y1="240" x2="510" y2="280" stroke="url(#grad)" stroke-width="2"/>
    <line x1="480" y1="240" x2="440" y2="270" stroke="url(#grad)" stroke-width="2"/>
  </g>
  
  <!-- Computer stand -->
  <rect x="475" y="330" width="70" height="20" rx="5" fill="#555555"/>
  <rect x="495" y="330" width="30" height="120" rx="5" fill="#555555"/>
  <rect x="465" y="450" width="90" height="10" rx="5" fill="#555555"/>
  
  <!-- Students/evaluations visualization -->
  <circle cx="600" cy="200" r="30" fill="url(#gradLight)" opacity="0.6"/>
  <circle cx="650" cy="250" r="25" fill="url(#gradLight)" opacity="0.6"/>
  <circle cx="630" cy="300" r="28" fill="url(#gradLight)" opacity="0.6"/>
  <circle cx="680" cy="320" r="22" fill="url(#gradLight)" opacity="0.6"/>
  <circle cx="660" cy="370" r="26" fill="url(#gradLight)" opacity="0.6"/>
  
  <!-- Data flow lines -->
  <line x1="290" y1="220" x2="380" y2="220" stroke="url(#grad)" stroke-width="3" stroke-dasharray="5,5"/>
  <line x1="640" y1="220" x2="710" y2="220" stroke="url(#grad)" stroke-width="3"/>
  
  <!-- Chart/Results -->
  <rect x="710" y="180" width="140" height="180" rx="10" fill="#FFFFFF" stroke="url(#grad)" stroke-width="2"/>
  <line x1="730" y1="340" x2="730" y2="200" stroke="#444444" stroke-width="2"/>
  <line x1="730" y1="340" x2="830" y2="340" stroke="#444444" stroke-width="2"/>
  
  <!-- Bar chart -->
  <rect x="750" y="300" width="15" height="40" fill="url(#grad)" opacity="0.7"/>
  <rect x="780" y="270" width="15" height="70" fill="url(#grad)" opacity="0.8"/>
  <rect x="810" y="240" width="15" height="100" fill="url(#grad)" opacity="0.9"/>
  
  <!-- Decorative elements -->
  <circle cx="850" cy="170" r="40" fill="url(#grad)" opacity="0.2"/>
  <circle cx="820" cy="400" r="30" fill="url(#grad)" opacity="0.2"/>
  <circle cx="150" cy="480" r="50" fill="url(#grad)" opacity="0.2"/>
</svg>
